<svg xmlns="http://www.w3.org/2000/svg" viewBox="0 0 900 560"><rect width="900" height="560" rx="22" fill="#eef3ef"/><rect width="210" height="560" rx="22" fill="#163f36"/><text x="30" y="52" font-family="Arial" font-size="17" font-weight="700" fill="#f5f0e8">IQA ADMIN</text><text x="30" y="110" font-family="Arial" font-size="13" fill="#d9b36d">DASHBOARD</text><text x="30" y="150" font-family="Arial" font-size="13" fill="#d8e5dc">Leads</text><text x="30" y="185" font-family="Arial" font-size="13" fill="#d8e5dc">Exports</text><text x="30" y="220" font-family="Arial" font-size="13" fill="#d8e5dc">Settings</text><text x="250" y="58" font-family="Arial" font-size="26" font-weight="700" fill="#163f36">Lead overview</text><text x="250" y="84" font-family="Arial" font-size="13" fill="#73857b">Admissions enquiries at a glance</text><rect x="250" y="115" width="180" height="95" rx="15" fill="#fffdf8"/><rect x="450" y="115" width="180" height="95" rx="15" fill="#fffdf8"/><rect x="650" y="115" width="180" height="95" rx="15" fill="#fffdf8"/><text x="270" y="148" font-family="Arial" font-size="12" fill="#73857b">TOTAL LEADS</text><text x="270" y="188" font-family="Arial" font-size="30" font-weight="700" fill="#163f36">128</text><text x="470" y="148" font-family="Arial" font-size="12" fill="#73857b">NEW THIS WEEK</text><text x="470" y="188" font-family="Arial" font-size="30" font-weight="700" fill="#163f36">24</text><text x="670" y="148" font-family="Arial" font-size="12" fill="#73857b">FOLLOW-UP</text><text x="670" y="188" font-family="Arial" font-size="30" font-weight="700" fill="#163f36">17</text><rect x="250" y="240" width="580" height="250" rx="15" fill="#fffdf8"/><text x="275" y="277" font-family="Arial" font-size="16" font-weight="700" fill="#163f36">Recent enquiries</text><path d="M275 315h520M275 360h520M275 405h520M275 450h520" stroke="#dce5df"/><text x="275" y="335" font-family="Arial" font-size="13" fill="#52665d">Amina Yusuf</text><text x="500" y="335" font-family="Arial" font-size="13" fill="#52665d">Quran learning</text><text x="275" y="380" font-family="Arial" font-size="13" fill="#52665d">Ibrahim Musa</text><text x="500" y="380" font-family="Arial" font-size="13" fill="#52665d">Arabic studies</text><text x="275" y="425" font-family="Arial" font-size="13" fill="#52665d">Maryam Ali</text><text x="500" y="425" font-family="Arial" font-size="13" fill="#52665d">Islamic studies</text></svg>
